<svg width="133" height="23" viewBox="0 0 133 23" fill="none" xmlns="http://www.w3.org/2000/svg">
<path d="M10.2159 0.34868L17.0579 17.5726H13.6841L8.54927 3.90786L5.89136 10.8956H11.1754V13.6365H4.84797L3.35086 17.5717H0L6.91357 0.34868H10.2159ZM18.1393 17.5726H21.0911V0.34868H18.1393V17.5726ZM35.9758 8.21295C36.4922 9.1972 36.7482 10.3015 36.7482 11.5267C36.7482 12.752 36.4878 13.8077 35.9643 14.784C35.44 15.7603 34.7091 16.5292 33.7743 17.0871C32.8359 17.645 31.7722 17.9239 30.5885 17.9239C29.9176 17.9239 29.3182 17.8445 28.7939 17.69C28.2695 17.5355 27.814 17.3051 27.4221 17.0112L26.5094 13.8254V22.613H23.5575V5.38909H26.5058V6.72378C26.8987 6.29654 27.3586 5.94168 27.8891 5.66097C28.6694 5.24608 29.5777 5.03864 30.607 5.03864C31.7943 5.03864 32.858 5.32112 33.7963 5.88695C34.7347 6.45278 35.4585 7.2287 35.9749 8.21295H35.9758ZM33.6763 11.5258C33.6763 10.7985 33.5218 10.1276 33.2084 9.54676C32.8959 8.96592 32.4661 8.52103 31.9188 8.20501C31.3723 7.88811 30.7465 7.7301 30.0456 7.7301C29.3447 7.7301 28.7603 7.88811 28.206 8.20501C27.6516 8.52191 27.2147 8.96681 26.8942 9.53617C26.5738 10.1055 26.4158 10.7685 26.4158 11.5267C26.4158 12.285 26.5738 12.895 26.8942 13.4608C27.2147 14.0222 27.6516 14.4601 28.206 14.769C28.7603 15.078 29.3747 15.2324 30.0456 15.2324C30.7165 15.2324 31.3723 15.078 31.9188 14.769C32.4652 14.4601 32.8951 14.0266 33.2084 13.4608C33.5209 12.8994 33.6763 12.2541 33.6763 11.5267V11.5258ZM47.7594 5.64508C47.085 5.24167 46.2667 5.03776 45.2975 5.03776C44.5621 5.03776 43.9478 5.14369 43.4464 5.35466C42.945 5.56563 42.5151 5.864 42.1567 6.25593L41.4779 8.99682V0.34868H38.526L38.534 0.352211V17.5761H41.4858V11.201C41.4858 10.4692 41.6023 9.8513 41.8363 9.33844C42.0702 8.82557 42.3977 8.43363 42.8196 8.16264C43.2425 7.89164 43.7544 7.7557 44.3653 7.7557C45.2207 7.7557 45.8501 8.00463 46.2499 8.50249C46.6463 8.99594 46.8458 9.78775 46.8458 10.8735V17.5761H49.7976V10.2362C49.7976 9.13188 49.6246 8.19265 49.2812 7.41673C48.9379 6.63992 48.4294 6.04849 47.7585 5.64508H47.7594ZM64.5384 12.1367L66.3665 17.5726H63.2487L61.8205 13.098L61.5865 16.1929C61.1346 16.7393 60.5688 17.1656 59.8864 17.4711C59.204 17.7765 58.4122 17.9274 57.5074 17.9274C56.3202 17.9274 55.2565 17.6485 54.3216 17.0906V17.0871C53.3833 16.5292 52.6515 15.7603 52.1201 14.784C51.5887 13.8077 51.3248 12.722 51.3248 11.5267C51.3248 10.3315 51.5852 9.1972 52.1086 8.21295C52.6321 7.2287 53.3639 6.45278 54.2987 5.88695C55.237 5.32112 56.2972 5.03864 57.488 5.03864C58.5173 5.03864 59.4256 5.24608 60.2059 5.66097C60.7285 5.93903 61.1796 6.28948 61.5627 6.70966V5.38909H64.5375V12.1367H64.5384ZM61.6766 11.5258C61.6766 10.7985 61.5142 10.1082 61.1981 9.53529C60.8777 8.96592 60.4399 8.52103 59.8864 8.20412C59.332 7.88722 58.7177 7.72921 58.0468 7.72921C57.3759 7.72921 56.72 7.88722 56.1727 8.20412C55.6263 8.52103 55.1929 8.96945 54.8725 9.54588C54.552 10.1223 54.3931 10.7861 54.3931 11.525C54.3931 12.2638 54.5512 12.8932 54.8725 13.459C55.1929 14.0205 55.6263 14.4583 56.1727 14.7672C56.72 15.0762 57.345 15.2307 58.0468 15.2307C58.7486 15.2307 59.332 15.0762 59.8864 14.7672C60.4408 14.4583 60.8777 14.0249 61.1981 13.459C61.5186 12.8976 61.6766 12.2523 61.6766 11.525V11.5258ZM77.85 8.34801C77.0397 8.05406 75.9839 7.77159 74.6872 7.50765C73.7674 7.32316 73.0365 7.14926 72.4971 6.98772C71.9578 6.82529 71.5129 6.58784 71.1624 6.27182C70.812 5.95492 70.6346 5.52503 70.6346 4.98656C70.6346 4.27419 70.9435 3.71278 71.5623 3.29436C72.1767 2.87595 72.987 2.6685 73.9863 2.6685C74.7516 2.6685 75.4296 2.81151 76.0148 3.10193C76.5992 3.39234 77.0432 3.79575 77.3495 4.31921C77.6549 4.84356 77.8059 5.44293 77.8059 6.11381L80.5953 4.89652C80.4673 3.99172 80.1204 3.16636 79.5511 2.42399C78.9817 1.68514 78.2164 1.09282 77.2551 0.655871C76.2938 0.218918 75.1745 0 73.9872 0C72.7999 0 71.7141 0.218918 70.7299 0.65234C69.7456 1.08576 68.9618 1.69661 68.3845 2.48048C67.808 3.26435 67.5176 4.16915 67.5176 5.19489C67.5176 6.3751 67.8045 7.30638 68.373 7.98079C68.9424 8.6552 69.6362 9.13806 70.458 9.42494C71.2798 9.71183 72.3206 9.9793 73.5864 10.2282C74.5557 10.4171 75.3051 10.5902 75.8374 10.7526C76.3688 10.915 76.8102 11.163 77.1606 11.495C77.5111 11.8304 77.6885 12.2753 77.6885 12.8332C77.6885 13.5605 77.3601 14.1529 76.7042 14.6013C76.0484 15.0497 75.1956 15.2757 74.1487 15.2757C73.3084 15.2757 72.573 15.1177 71.9472 14.7973C71.3249 14.4768 70.8429 14.0169 70.5074 13.414C70.172 12.8146 70.0016 12.1138 70.0016 11.3184L67.0957 12.6796C67.2652 13.7724 67.6765 14.7152 68.3244 15.5034C68.9733 16.2953 69.8021 16.8946 70.8085 17.3095V17.3016C71.8192 17.7165 72.8855 17.9239 74.1487 17.9239C75.4119 17.9239 76.5498 17.7165 77.557 17.306C78.5633 16.8955 79.3586 16.2917 79.9359 15.5079C80.5123 14.724 80.8028 13.7927 80.8028 12.7184C80.8028 11.4897 80.5123 10.5284 79.9359 9.83453C79.3595 9.14424 78.6621 8.65079 77.8509 8.35331L77.85 8.34801ZM93.1893 8.03905C93.6642 8.98534 93.9061 10.0711 93.9061 11.2963C93.9061 11.4658 93.8981 11.6468 93.8831 11.8313C93.8681 12.0158 93.846 12.2197 93.8116 12.4342H85.0302C85.0955 12.9382 85.2164 13.3875 85.3939 13.7609C85.6763 14.3568 86.0647 14.7867 86.5661 15.0577C87.0675 15.3287 87.6519 15.4646 88.3228 15.4646C89.1181 15.4646 89.7819 15.2987 90.3133 14.9597C90.8447 14.6242 91.2746 14.0964 91.6021 13.3761L93.7092 15.2987C93.1319 16.1734 92.3666 16.8293 91.4132 17.2663C90.459 17.7032 89.3971 17.9221 88.2283 17.9221C86.9466 17.9221 85.8308 17.6511 84.8775 17.1083L84.881 17.1118C83.9276 16.5689 83.1923 15.8151 82.6795 14.8538C82.1631 13.8925 81.9071 12.7917 81.9071 11.5514C81.9071 10.3112 82.171 9.21397 82.7024 8.21119C83.2338 7.21193 83.9691 6.4316 84.9039 5.87371C85.8423 5.31582 86.8945 5.03688 88.0668 5.03688C89.239 5.03688 90.2833 5.30081 91.1616 5.82869C92.0364 6.35656 92.7108 7.09188 93.1893 8.03817V8.03905ZM85.3594 9.25723C85.2235 9.56971 85.1237 9.92545 85.0584 10.3245H90.7379C90.7379 10.3165 90.7379 10.3094 90.7379 10.3015C90.7379 9.44172 90.4969 8.75936 90.0106 8.25444C89.5242 7.74952 88.8604 7.49705 88.02 7.49705C87.4091 7.49705 86.8777 7.64447 86.4258 7.93842C85.9738 8.23237 85.619 8.67374 85.3586 9.25811L85.3594 9.25723ZM104.966 5.64508C104.295 5.24167 103.473 5.03776 102.504 5.03776C101.769 5.03776 101.154 5.13221 100.653 5.32023C100.151 5.50914 99.7215 5.79515 99.364 6.18708L98.6852 8.92797V5.3882H95.7369V17.5761H98.6887V11.201C98.6887 10.4692 98.8052 9.8513 99.0392 9.33844C99.2731 8.82557 99.6006 8.43363 100.023 8.16264C100.445 7.89164 100.958 7.7557 101.569 7.7557C102.429 7.7557 103.054 8.00463 103.454 8.50249C103.854 8.99594 104.053 9.78775 104.053 10.8735V17.5761H107.005V10.2362C107.005 9.13188 106.831 8.19265 106.489 7.41673C106.145 6.63992 105.637 6.04849 104.965 5.64508H104.966ZM117.055 10.877C116.399 10.6511 115.562 10.4471 114.548 10.2591C113.907 10.1382 113.406 10.0252 113.047 9.92722C112.689 9.82571 112.387 9.68623 112.146 9.50086C111.905 9.31637 111.784 9.07097 111.784 8.76554C111.784 8.35066 111.969 8.01522 112.334 7.7557C112.699 7.49529 113.204 7.36376 113.846 7.36376C114.66 7.36376 115.301 7.54825 115.769 7.91459C116.237 8.28445 116.489 8.80791 116.519 9.49821L119.308 8.48748C119.165 7.79718 118.852 7.19428 118.359 6.67435C117.869 6.15442 117.239 5.75101 116.474 5.46765C115.709 5.18518 114.834 5.04129 113.851 5.04129C112.946 5.04129 112.101 5.21431 111.321 5.55416C110.54 5.89313 109.914 6.36451 109.447 6.96035C108.976 7.5562 108.742 8.22708 108.742 8.96945C108.742 9.8363 108.973 10.5266 109.432 11.0395C109.892 11.5523 110.439 11.9143 111.073 12.1217C111.702 12.3291 112.512 12.5286 113.497 12.7131C114.137 12.8376 114.642 12.9506 115.019 13.06C115.396 13.1695 115.705 13.3204 115.947 13.512C116.188 13.7044 116.309 13.9569 116.309 14.2659C116.309 14.6807 116.105 15.0082 115.698 15.2501C115.291 15.4876 114.786 15.6085 114.175 15.6085C113.33 15.6085 112.64 15.409 112.101 15.0091C111.562 14.6137 111.268 13.9834 111.223 13.1245L108.41 14.3197C108.55 15.07 108.877 15.718 109.395 16.2652C109.907 16.8117 110.57 17.223 111.385 17.5055V17.517C112.199 17.7994 113.127 17.9389 114.175 17.9389C115.72 17.9389 116.99 17.6105 117.982 16.9591C118.973 16.3032 119.471 15.3384 119.471 14.0637C119.471 13.1774 119.23 12.4801 118.755 11.9752C118.277 11.4702 117.711 11.1039 117.055 10.8779V10.877ZM132.41 11.2963C132.41 11.4658 132.402 11.6468 132.387 11.8313C132.372 12.0158 132.349 12.2197 132.316 12.4342H123.534C123.599 12.9382 123.72 13.3875 123.898 13.7609C124.18 14.3568 124.569 14.7867 125.07 15.0577C125.571 15.3287 126.156 15.4646 126.827 15.4646C127.622 15.4646 128.286 15.2987 128.817 14.9597C129.349 14.6242 129.779 14.0964 130.107 13.3761L132.214 15.2987C131.638 16.1734 130.872 16.8293 129.918 17.2663C128.965 17.7032 127.901 17.9221 126.732 17.9221C125.451 17.9221 124.335 17.6511 123.381 17.1083L123.385 17.1118C122.432 16.5689 121.696 15.8151 121.183 14.8538C120.667 13.8925 120.411 12.7917 120.411 11.5514C120.411 10.3112 120.675 9.21397 121.206 8.21119C121.738 7.21193 122.473 6.4316 123.408 5.87371C124.346 5.31582 125.398 5.03688 126.571 5.03688C127.743 5.03688 128.787 5.30081 129.666 5.82869C130.54 6.35656 131.215 7.09188 131.694 8.03817C132.169 8.98446 132.41 10.0702 132.41 11.2955V11.2963ZM123.864 9.25723C123.728 9.56971 123.628 9.92545 123.563 10.3245H129.243C129.243 10.3165 129.243 10.3094 129.243 10.3015C129.243 9.44172 129.002 8.75936 128.515 8.25444C128.029 7.74952 127.365 7.49705 126.525 7.49705C125.914 7.49705 125.383 7.64447 124.931 7.93842C124.478 8.23237 124.124 8.67374 123.863 9.25811L123.864 9.25723Z" fill="#101329"></path>
<path d="M21.0911 19.8398H0V22.6134H21.0911V19.8398Z" fill="#0040FF"></path>
</svg>
