<svg xmlns="http://www.w3.org/2000/svg" viewBox="0 0 200.98 119.62"><defs><style>.cls-1,.cls-2{fill:#1a171b;}.cls-2,.cls-3{fill-rule:evenodd;}.cls-3{fill:red;}.cls-4{fill:none;}</style></defs><g id="Layer_2" data-name="Layer 2"><g id="Layer_1-2" data-name="Layer 1"><path class="cls-1" d="M50.8,67.76V58.51H49.07V54.88h8V58.5H55.61v8.6a3,3,0,0,0,3.27,3.25A3,3,0,0,0,62.22,67V58.52h-1.4V54.87h8v3.64H67.07V67.8a6.34,6.34,0,0,1-2.24,5.12,8.68,8.68,0,0,1-6,1.89A8.28,8.28,0,0,1,53,72.94a6.42,6.42,0,0,1-2.2-5.18"/><path class="cls-2" d="M17.09,70.7H19a3.53,3.53,0,0,0,2.19-.54,2.47,2.47,0,0,0,.74-1.89,2.4,2.4,0,0,0-.75-1.85A3.7,3.7,0,0,0,19,65.8H17.09v4.9m0-8h1.83a3.23,3.23,0,0,0,1.92-.54,2,2,0,0,0,.65-1.57,2,2,0,0,0-.64-1.57,3.25,3.25,0,0,0-1.9-.54H17.1v4.22ZM10.49,74.44V70.7h1.8V58.54H10.5V54.9h9.3a7.38,7.38,0,0,1,4.78,1.31A4.54,4.54,0,0,1,26.28,60a3.51,3.51,0,0,1-.81,2.5,6.48,6.48,0,0,1-2.85,1.67A6.25,6.25,0,0,1,26,65.83,4.63,4.63,0,0,1,27,69a5,5,0,0,1-1.69,4,6.59,6.59,0,0,1-4.58,1.37Z"/><path class="cls-2" d="M28.59,74.46V70.69h1.56L34,58.52h-2V54.89H45.3v3.63H43.41l3.78,12.15h1.46l0,3.78H40.84V70.68h1.66l-.86-2.9H35.75l-.87,2.93h1.68l.1,3.75H28.59m8.12-9.82h4l-2-6.47-2,6.47Z"/><polyline class="cls-1" points="70.83 74.41 70.83 70.7 72.66 70.7 72.66 58.5 70.83 58.5 70.83 54.88 79.25 54.88 83.44 64.49 87.62 54.87 95.94 54.87 95.94 58.5 94.21 58.5 94.19 70.7 95.95 70.7 95.94 74.42 87.58 74.42 87.58 70.69 89.53 70.69 89.53 60.97 85.09 70.67 81.83 70.67 77.38 61.02 77.38 70.7 79.24 70.7 79.24 74.42 70.83 74.41"/><path class="cls-1" d="M99.67,67.74V58.51H97.85V54.88h6.6V67a3.57,3.57,0,0,0,.82,2.46,3.67,3.67,0,0,0,2.51.89,3.44,3.44,0,0,0,2.45-.87A3.56,3.56,0,0,0,111.1,67l0-12.14h6.6v3.63h-1.78v9.21a6.44,6.44,0,0,1-2.19,5.18,8.53,8.53,0,0,1-5.93,1.9,8.63,8.63,0,0,1-6-1.9,6.36,6.36,0,0,1-2.17-5.16"/><polyline class="cls-1" points="108.42 58.59 108.42 54.88 109.86 54.88 109.86 58.59 108.42 58.59"/><polyline class="cls-1" points="105.79 58.59 105.79 54.88 107.21 54.88 107.22 58.6 105.79 58.59"/><polyline class="cls-1" points="119.58 74.46 119.58 70.73 121.39 70.73 121.39 58.53 119.56 58.53 119.6 54.86 128.16 54.86 128.18 58.53 126.22 58.54 126.24 70.73 131.2 70.73 132.4 66.9 135.28 66.9 135.27 74.46 119.58 74.46"/><polyline class="cls-1" points="136.96 74.41 136.99 70.75 138.31 70.75 138.31 58.49 136.49 58.49 136.49 54.88 145 54.88 145 58.5 143.09 58.5 143.09 70.75 148.04 70.75 149.24 66.92 152.12 66.92 152.12 74.42 136.96 74.41"/><polyline class="cls-1" points="153.83 74.44 153.83 70.77 155.63 70.76 155.63 58.55 153.83 58.55 153.84 54.88 170.62 54.88 170.59 61.19 167.81 61.19 166.83 58.55 160.46 58.55 160.46 62.61 164.8 62.61 164.8 66.2 160.46 66.2 160.47 70.76 166.76 70.74 167.8 66.94 170.62 66.94 170.59 74.44 153.83 74.44"/><path class="cls-3" d="M83.44,40.82H88.6a13.22,13.22,0,1,1,23,0h5.15v6.4H83.44v-6.4m10.18-6.54a6.47,6.47,0,1,0,6.47-6.47,6.47,6.47,0,0,0-6.47,6.47Z"/><path class="cls-2" d="M172.78,74.42V70.75h1.78l0-12.23h-1.8V54.88h11.71a4.64,4.64,0,0,1,3.58,1.38,4.52,4.52,0,0,1,1.39,3.53,4.47,4.47,0,0,1-.79,2.73,4.26,4.26,0,0,1-2.05,1.78,2.93,2.93,0,0,1,1.66,1,2.48,2.48,0,0,1,.59,1.71v3.65h1.61v3.71h-4.18a2.21,2.21,0,0,1-2.26-2.5v-2a6,6,0,0,0-.6-3.27,3.2,3.2,0,0,0-2.26-.71h-1.78l0,4.78h1.72l0,3.67h-8.39m6.63-15.86v4.55h2.31a3.58,3.58,0,0,0,2.12-.56,2.38,2.38,0,0,0,0-3.45,3.87,3.87,0,0,0-2.15-.55Z"/><rect class="cls-4" width="200.98" height="119.62"/></g></g></svg>