<?xml version="1.0" encoding="utf-8"?>
<!-- Generator: Adobe Illustrator 24.2.0, SVG Export Plug-In . SVG Version: 6.00 Build 0)  -->
<svg version="1.1" id="Livello_1" xmlns="http://www.w3.org/2000/svg" xmlns:xlink="http://www.w3.org/1999/xlink" x="0px" y="0px"
	 viewBox="0 0 198.4 36.9" style="enable-background:new 0 0 198.4 36.9;" xml:space="preserve">
<style type="text/css">
	.st0{fill:#FFFFFF;}
	.st1{fill:#3D3935;}
</style>
<polygon class="st0" points="18.4,0 0,18.4 0,18.4 2.5,20.9 14.2,32.6 16.7,30.1 4.9,18.4 20.9,2.5 "/>
<polygon class="st0" points="20.2,6.8 31.9,18.5 16,34.4 18.5,36.9 36.9,18.5 22.7,4.3 "/>
<polygon class="st0" points="19.6,17.6 18.4,19.2 17.3,17.6 10.4,16.2 18.4,24.2 26.5,16.2 "/>
<polygon class="st0" points="101.7,9.6 101.7,9.6 110.8,23.6 "/>
<polygon class="st0" points="97.3,22 95,22 95,25.3 104.5,25.3 104.5,22 101.8,22 101.8,14.5 97.3,7.5 "/>
<polygon class="st0" points="115.1,21.9 102.6,2.1 95,2.1 95,5.4 99,5.4 110.8,23.6 111.9,25.3 115.1,25.3 "/>
<path class="st1" d="M111.9,25.3"/>
<path class="st0" d="M45.4,19c0.7,1.5,1.6,2.8,2.8,3.8c1.2,1,2.7,1.8,4.2,2.3c1.7,0.5,3.4,0.8,5.2,0.8c1.3,0,2.7-0.1,4-0.4
	c1-0.2,1.9-0.5,2.8-0.9v-3.3c-0.9,0.4-1.8,0.7-2.8,0.9c-0.9,0.2-1.9,0.3-2.8,0.3c-1.2,0-2.4-0.2-3.5-0.6c-1-0.4-2-0.9-2.7-1.7
	c-0.8-0.8-1.4-1.7-1.8-2.8c-0.3-0.7-0.4-1.5-0.5-2.2h-5.8C44.5,16.4,44.8,17.7,45.4,19"/>
<path class="st0" d="M64.4,10.7V3.1c-1.1-0.5-2.3-0.9-3.6-1.1c-1.3-0.2-2.6-0.4-3.9-0.4c-1.8,0-3.6,0.2-5.3,0.8
	c-1.5,0.5-2.9,1.3-4,2.4c-1.1,1.1-2,2.3-2.5,3.8c-0.5,1.2-0.8,2.5-0.8,3.8h5.8c0-1.9,0.7-3.8,1.9-5.3C53.3,5.8,55.2,5,57.2,5
	c0.5,0,1,0,1.5,0.1c0.5,0.1,0.9,0.2,1.4,0.4v5.2H64.4z"/>
<path class="st0" d="M76.8,21.8c-0.8-0.4-1.5-1-2-1.8c-0.5-0.8-0.9-1.8-1.1-2.7c-0.2-1.2-0.4-2.4-0.3-3.6c0-1.2,0.1-2.4,0.3-3.6
	c0.2-1,0.6-1.9,1.1-2.7c0.5-0.7,1.2-1.4,2-1.8c0.5-0.3,1.1-0.4,1.7-0.5V1.7c-1.3,0.1-2.6,0.3-3.9,0.8c-1.4,0.5-2.8,1.3-3.8,2.4
	c-1.1,1.1-1.9,2.4-2.4,3.8c-0.6,1.6-0.9,3.3-0.8,5c0,1.7,0.3,3.4,0.8,5c1,2.9,3.3,5.2,6.3,6.2c1.2,0.5,2.6,0.7,3.9,0.8v-3.4
	C78,22.3,77.4,22.1,76.8,21.8"/>
<path class="st0" d="M91.3,8.7c-0.5-1.4-1.3-2.7-2.4-3.8C87.8,3.8,86.4,3,85,2.5c-1.2-0.4-2.6-0.7-3.9-0.8v3.4
	c0.6,0.1,1.2,0.2,1.7,0.5c0.8,0.4,1.5,1,2,1.8c0.6,0.8,0.9,1.8,1.2,2.7c0.2,1.2,0.3,2.4,0.3,3.6c0,1.2-0.1,2.4-0.3,3.6
	c-0.2,1-0.6,1.9-1.1,2.7c-0.5,0.8-1.2,1.4-2,1.8c-0.5,0.3-1.1,0.4-1.7,0.5v3.4c1.3-0.1,2.6-0.3,3.9-0.8c1.4-0.5,2.7-1.3,3.8-2.4
	c1.1-1.1,1.9-2.4,2.4-3.8c0.6-1.6,0.9-3.3,0.8-5C92.1,12.1,91.8,10.4,91.3,8.7"/>
<path class="st0" d="M144.7,8.4c-0.7-1.4-1.7-2.6-2.9-3.6c-1.3-0.9-2.7-1.6-4.2-2c-1.6-0.4-3.3-0.6-5-0.6h-10.5v3.3h2.2V22h-2.2v3.4
	h7.5V5.5h2.5c2.6,0,4.6,0.7,5.9,2.1c1.4,1.7,2.1,3.9,1.9,6.1c0.2,2.2-0.5,4.5-1.9,6.2c-1.3,1.4-3.2,2.1-5.9,2.2v3.4h0.3
	c1.7,0,3.4-0.2,5-0.7c1.6-0.4,3-1.1,4.3-2.1c1.2-1,2.2-2.2,2.9-3.6c0.8-1.7,1.1-3.5,1.1-5.3C145.9,11.8,145.5,10,144.7,8.4"/>
<path class="st0" d="M155.2,10.1c0.2-1,0.6-1.9,1.1-2.7c0.5-0.7,1.2-1.4,2-1.8c0.9-0.4,2-0.6,3-0.6c1,0,2.1,0.2,3,0.6
	c0.8,0.4,1.5,1,2,1.8c0.5,0.8,0.9,1.8,1.1,2.7c0.2,0.7,0.2,1.5,0.3,2.3h5.8c-0.1-1.3-0.3-2.5-0.8-3.7c-0.5-1.4-1.3-2.7-2.4-3.8
	c-1.1-1.1-2.4-1.9-3.9-2.4c-3.3-1.1-6.9-1.1-10.3,0c-1.4,0.5-2.8,1.3-3.9,2.4c-1.1,1.1-1.9,2.4-2.4,3.8c-0.4,1.2-0.7,2.4-0.8,3.7
	h5.8C155,11.6,155.1,10.9,155.2,10.1"/>
<path class="st0" d="M167.3,17.3c-0.2,1-0.6,1.9-1.1,2.7c-0.5,0.8-1.2,1.4-2,1.8c-1.9,0.8-4.1,0.8-6,0c-0.8-0.4-1.5-1-2-1.8
	c-0.5-0.8-0.9-1.8-1.1-2.7c-0.2-0.8-0.3-1.6-0.3-2.4H149c0.1,1.3,0.3,2.6,0.8,3.8c1,2.9,3.3,5.2,6.3,6.2c3.3,1.1,7,1.1,10.3,0
	c2.9-1,5.2-3.3,6.3-6.2c0.4-1.2,0.7-2.5,0.8-3.8h-5.8C167.5,15.8,167.4,16.5,167.3,17.3"/>
<path class="st0" d="M198,21.9c-1.6,0-3-0.9-4.1-2.7l-2.1-3.5v-0.2c1.2-0.5,2.3-1.4,3.1-2.5c0.8-1.2,1.3-2.6,1.2-4
	c0-1-0.2-2.1-0.7-3c-0.5-0.9-1.2-1.6-2-2.2c-0.9-0.6-1.9-1.1-3-1.3c-1.3-0.3-2.6-0.5-3.9-0.5h-0.1v3.3c1.1,0,2.1,0.3,3,1
	c0.8,0.7,1.2,1.7,1.2,2.8c0,1.1-0.4,2.1-1.1,2.8c-1.1,0.9-2.5,1.3-3.8,1.1H184V2h-7.6v3.3h2.3v16.6h-2.3v3.4h9.7v-3.4H184v-5.4h2.1
	l3,5c0.4,0.6,0.8,1.1,1.2,1.6c0.4,0.5,0.9,0.9,1.5,1.3c0.6,0.4,1.2,0.6,1.9,0.8c0.8,0.2,1.6,0.3,2.4,0.3c0.4,0,0.8,0,1.2,0
	c0.4,0,0.8-0.1,1.2-0.2v-3.3H198z"/>
<polygon class="st0" points="114.4,3.2 113.5,4.4 112.7,3.2 107.6,2.2 113.5,8.1 119.4,2.2 "/>
<path class="st0" d="M69,30.7l-1.1,4.5h-1l-0.7-3l-0.7,3h-1l-1.2-4.5h1.1l0.6,2.7c0,0,0,0.1,0,0.1v0.1l0.7-3h1l0.8,3
	c0-0.1,0-0.2,0.1-0.3l0.6-2.7H69z"/>
<path class="st0" d="M74.2,31.5H72v0.9h1.7v0.8H72v1h2.1v0.9H71v-4.5h3.2L74.2,31.5z"/>
<path class="st0" d="M77.3,34.3h1.8v0.9h-2.8v-4.5h1.1V34.3z"/>
<path class="st0" d="M84.7,32.3l-1.1,0.1c0-0.6-0.3-1-0.7-1S82,31.9,82,32.9c0,0.4,0,0.8,0.2,1.1c0.1,0.2,0.4,0.3,0.6,0.3
	c0.4,0,0.7-0.3,0.8-0.8l1,0.1c0,0.5-0.2,0.9-0.6,1.2c-0.3,0.3-0.8,0.4-1.2,0.4c-0.5,0-1.1-0.2-1.4-0.6c-0.4-0.5-0.6-1.1-0.6-1.7
	c0-0.6,0.2-1.2,0.5-1.7c0.4-0.4,0.9-0.7,1.5-0.6c0.9-0.1,1.7,0.6,1.8,1.5C84.7,32.2,84.7,32.3,84.7,32.3z"/>
<path class="st0" d="M88.4,35.2c-0.6,0-1.1-0.2-1.4-0.7c-0.3-0.5-0.5-1.1-0.5-1.6c0-0.6,0.2-1.2,0.5-1.6c0.3-0.4,0.9-0.7,1.4-0.7
	c0.6,0,1.1,0.2,1.4,0.7c0.3,0.5,0.5,1,0.5,1.6c0,0.6-0.1,1.2-0.5,1.7C89.5,35,89,35.3,88.4,35.2z M88.4,31.5c-0.6,0-0.8,0.5-0.8,1.5
	c0,1,0.3,1.5,0.8,1.5s0.8-0.5,0.8-1.5C89.2,31.9,89,31.5,88.4,31.5L88.4,31.5z"/>
<path class="st0" d="M94.5,35.1l-1.1-3.6v3.7h-0.9v-4.5h1.6l0.8,2.7l0.8-2.7h1.6v4.5h-1.1v-3.6l-1.1,3.6H94.5z"/>
<path class="st0" d="M103,31.5h-2.1v0.9h1.7v0.8h-1.7v1h2.1v0.9h-3.2v-4.5h3.2V31.5z"/>
<path class="st0" d="M111.1,30.7v0.9H110v3.6h-1.1v-3.6h-1.1v-0.9L111.1,30.7z"/>
<path class="st0" d="M116.4,30.7v4.5h-1v-1.8H114v1.8h-1v-4.5h1v1.8h1.4v-1.8H116.4z"/>
<path class="st0" d="M122,31.5h-2.1v0.9h1.7v0.8h-1.7v1h2.1v0.9h-3.2v-4.5h3.2V31.5z"/>
<path class="st0" d="M130.9,32.3l-1.1,0.1c0-0.6-0.3-1-0.7-1s-0.8,0.5-0.8,1.5c0,0.4,0,0.8,0.2,1.1c0.1,0.2,0.4,0.3,0.6,0.3
	c0.4,0,0.7-0.3,0.8-0.8l1,0.1c0,0.5-0.3,0.9-0.6,1.2c-0.8,0.6-2,0.5-2.7-0.2c-0.4-0.5-0.6-1.1-0.6-1.7c0-0.6,0.2-1.2,0.5-1.7
	c0.4-0.4,0.9-0.7,1.5-0.6c0.9-0.1,1.8,0.6,1.8,1.6C130.9,32.2,130.9,32.3,130.9,32.3z"/>
<path class="st0" d="M136.4,30.7v4.5h-1v-1.8H134v1.8h-1v-4.5h1v1.8h1.4v-1.8H136.4z"/>
<path class="st0" d="M141,30.7l1.4,4.5h-1.1l-0.3-0.9h-1.4l-0.3,0.9h-0.9l1.4-4.5H141z M139.8,33.4h0.9l-0.5-1.6L139.8,33.4z"/>
<path class="st0" d="M145.4,34.3h1.8v0.9h-2.8v-4.5h1.1V34.3z"/>
<path class="st0" d="M150.3,34.3h1.8v0.9h-2.8v-4.5h1.1V34.3z"/>
<path class="st0" d="M157.3,31.5h-2.1v0.9h1.7v0.8h-1.7v1h2.1v0.9h-3.2v-4.5h3.2V31.5z"/>
<path class="st0" d="M162.8,30.7v4.5h-0.9l-1.8-3c0,0,0,0.1,0,0.2c0,0.1,0,0.1,0,0.2v2.7h-0.8v-4.5h1.1l1.5,2.6c0-0.1,0-0.2,0-0.3
	v-2.4H162.8z"/>
<path class="st0" d="M168.7,32.8v2.4h-0.5c0-0.2-0.1-0.3-0.1-0.5c-0.3,0.4-0.7,0.6-1.2,0.6c-0.5,0-1-0.2-1.4-0.6
	c-0.3-0.5-0.5-1-0.5-1.6c0-0.6,0.2-1.2,0.5-1.7c0.7-0.8,1.8-0.9,2.6-0.2c0.3,0.3,0.5,0.7,0.6,1.1l-1,0.1c-0.1-0.5-0.3-0.8-0.8-0.8
	c-0.3,0-0.5,0.1-0.6,0.4c-0.2,0.3-0.2,0.7-0.2,1.1c0,0.3,0.1,0.7,0.2,1c0.1,0.2,0.4,0.4,0.7,0.4c0.2,0,0.4-0.1,0.5-0.2
	c0.2-0.2,0.2-0.4,0.2-0.6h-0.8v-0.8L168.7,32.8z"/>
<path class="st0" d="M174.2,31.5h-2.1v0.9h1.7v0.8h-1.7v1h2.1v0.9H171v-4.5h3.2L174.2,31.5z"/>
<path class="st0" d="M179.4,31.7l-0.9,0.3c-0.1-0.3-0.4-0.6-0.8-0.5c-0.4,0-0.6,0.1-0.6,0.4c0,0.1,0,0.2,0.1,0.3
	c0.2,0.1,0.3,0.2,0.5,0.2c0.3,0.1,0.7,0.2,1,0.3c0.2,0.1,0.4,0.3,0.5,0.5c0.1,0.2,0.2,0.4,0.2,0.7c0,0.4-0.2,0.7-0.5,1
	c-0.4,0.3-0.9,0.5-1.4,0.4c-0.4,0-0.8-0.1-1.2-0.3c-0.3-0.2-0.6-0.5-0.6-0.9l1-0.2c0.2,0.5,0.8,0.8,1.3,0.6c0.1,0,0.1,0,0.1-0.1
	c0.1-0.1,0.2-0.2,0.2-0.3c0-0.1-0.1-0.2-0.2-0.3c-0.2-0.1-0.4-0.2-0.6-0.2c-0.4-0.1-0.9-0.2-1.2-0.5c-0.3-0.2-0.4-0.6-0.4-0.9
	c0-0.4,0.2-0.7,0.4-1c0.3-0.3,0.7-0.4,1.2-0.4C178.4,30.5,179.1,31,179.4,31.7z"/>
</svg>
